<svg xmlns="http://www.w3.org/2000/svg" xmlns:xlink="http://www.w3.org/1999/xlink" width="40" zoomAndPan="magnify" viewBox="0 0 30 30.000001" height="40" preserveAspectRatio="xMidYMid meet" version="1.0"><defs><clipPath id="d8595d849b"><path d="M 2.007812 1.523438 L 28 1.523438 L 28 27.652344 L 2.007812 27.652344 Z M 2.007812 1.523438 " clip-rule="nonzero"/></clipPath><clipPath id="5e4a660eeb"><path d="M 11.660156 11.394531 L 17.46875 11.394531 L 17.46875 17.203125 L 11.660156 17.203125 Z M 11.660156 11.394531 " clip-rule="nonzero"/></clipPath><clipPath id="928eeb9d37"><path d="M 1.535156 1.269531 L 27.664062 1.269531 L 27.664062 27.398438 L 1.535156 27.398438 Z M 1.535156 1.269531 " clip-rule="nonzero"/></clipPath><clipPath id="124536871c"><path d="M 11.191406 11.140625 L 16.996094 11.140625 L 16.996094 16.949219 L 11.191406 16.949219 Z M 11.191406 11.140625 " clip-rule="nonzero"/></clipPath><clipPath id="e0651ae265"><path d="M 1.535156 1.429688 L 27.664062 1.429688 L 27.664062 27.558594 L 1.535156 27.558594 Z M 1.535156 1.429688 " clip-rule="nonzero"/></clipPath></defs><g clip-path="url(#d8595d849b)"><path fill="#ffffff" d="M 15 27.503906 C 22.175781 27.503906 27.988281 21.691406 27.988281 14.515625 C 27.988281 7.335938 22.175781 1.523438 15 1.523438 C 7.820312 1.523438 2.007812 7.335938 2.007812 14.515625 C 2.007812 21.691406 7.820312 27.503906 15 27.503906 Z M 15 27.503906 " fill-opacity="1" fill-rule="evenodd"/></g><path fill="#000000" d="M 16 7.015625 C 16 6.746094 15.773438 6.519531 15.492188 6.519531 L 14.503906 6.519531 C 14.214844 6.519531 14 6.746094 14 7.015625 L 14 13.515625 L 7.5 13.515625 C 7.226562 13.515625 7.003906 13.738281 7.003906 14.019531 L 7.003906 15.007812 C 7.003906 15.300781 7.226562 15.515625 7.5 15.515625 L 14 15.515625 L 14 22.015625 C 14 22.285156 14.222656 22.507812 14.503906 22.507812 L 15.492188 22.507812 C 15.785156 22.507812 16 22.285156 16 22.015625 L 16 15.515625 L 22.5 15.515625 C 22.769531 15.515625 22.992188 15.289062 22.992188 15.007812 L 22.992188 14.019531 C 22.992188 13.730469 22.769531 13.515625 22.5 13.515625 L 16 13.515625 Z M 16 7.015625 " fill-opacity="1" fill-rule="evenodd"/><g clip-path="url(#5e4a660eeb)"><path fill="#000000" d="M 17.390625 13.628906 L 15.15625 13.628906 L 15.15625 11.394531 L 13.894531 11.394531 L 13.894531 13.628906 L 11.660156 13.628906 L 11.660156 14.890625 L 13.894531 14.890625 L 13.894531 17.125 L 15.15625 17.125 L 15.15625 14.890625 L 17.390625 14.890625 L 17.390625 13.628906 " fill-opacity="1" fill-rule="nonzero"/></g><g clip-path="url(#928eeb9d37)"><path fill="#ffffff" d="M 14.527344 27.25 C 21.703125 27.25 27.519531 21.4375 27.519531 14.261719 C 27.519531 7.082031 21.703125 1.269531 14.527344 1.269531 C 7.351562 1.269531 1.535156 7.082031 1.535156 14.261719 C 1.535156 21.4375 7.351562 27.25 14.527344 27.25 Z M 14.527344 27.25 " fill-opacity="1" fill-rule="evenodd"/></g><path fill="#000000" d="M 15.527344 6.761719 C 15.527344 6.492188 15.300781 6.265625 15.023438 6.265625 L 14.03125 6.265625 C 13.742188 6.265625 13.527344 6.492188 13.527344 6.761719 L 13.527344 13.261719 L 7.027344 13.261719 C 6.757812 13.261719 6.53125 13.484375 6.53125 13.765625 L 6.53125 14.753906 C 6.53125 15.046875 6.757812 15.261719 7.027344 15.261719 L 13.527344 15.261719 L 13.527344 21.761719 C 13.527344 22.03125 13.75 22.253906 14.03125 22.253906 L 15.023438 22.253906 C 15.3125 22.253906 15.527344 22.03125 15.527344 21.761719 L 15.527344 15.261719 L 22.027344 15.261719 C 22.296875 15.261719 22.519531 15.035156 22.519531 14.753906 L 22.519531 13.765625 C 22.519531 13.476562 22.296875 13.261719 22.027344 13.261719 L 15.527344 13.261719 Z M 15.527344 6.761719 " fill-opacity="1" fill-rule="evenodd"/><g clip-path="url(#124536871c)"><path fill="#000000" d="M 16.917969 13.375 L 14.6875 13.375 L 14.6875 11.140625 L 13.421875 11.140625 L 13.421875 13.375 L 11.191406 13.375 L 11.191406 14.636719 L 13.421875 14.636719 L 13.421875 16.867188 L 14.6875 16.867188 L 14.6875 14.636719 L 16.917969 14.636719 L 16.917969 13.375 " fill-opacity="1" fill-rule="nonzero"/></g><path fill="#000000" d="M 25.328125 14.351562 C 25.328125 15.097656 25.253906 15.835938 25.109375 16.566406 C 24.964844 17.296875 24.75 18.007812 24.464844 18.695312 C 24.175781 19.382812 23.828125 20.039062 23.414062 20.65625 C 23 21.277344 22.53125 21.851562 22.003906 22.378906 C 21.476562 22.902344 20.902344 23.375 20.28125 23.789062 C 19.664062 24.203125 19.007812 24.550781 18.320312 24.835938 C 17.632812 25.121094 16.921875 25.335938 16.191406 25.484375 C 15.460938 25.628906 14.722656 25.699219 13.976562 25.699219 C 13.230469 25.699219 12.496094 25.628906 11.761719 25.484375 C 11.03125 25.335938 10.324219 25.121094 9.632812 24.835938 C 8.945312 24.550781 8.292969 24.203125 7.671875 23.789062 C 7.050781 23.375 6.480469 22.902344 5.953125 22.378906 C 5.425781 21.851562 4.953125 21.277344 4.539062 20.65625 C 4.128906 20.039062 3.777344 19.382812 3.492188 18.695312 C 3.207031 18.007812 2.992188 17.296875 2.847656 16.566406 C 2.699219 15.835938 2.628906 15.097656 2.628906 14.351562 C 2.628906 13.605469 2.699219 12.867188 2.847656 12.136719 C 2.992188 11.40625 3.207031 10.695312 3.492188 10.007812 C 3.777344 9.320312 4.128906 8.667969 4.539062 8.046875 C 4.953125 7.425781 5.425781 6.855469 5.953125 6.328125 C 6.480469 5.800781 7.050781 5.328125 7.671875 4.914062 C 8.292969 4.5 8.945312 4.152344 9.632812 3.867188 C 10.324219 3.582031 11.03125 3.367188 11.761719 3.21875 C 12.496094 3.074219 13.230469 3.003906 13.976562 3.003906 C 14.722656 3.003906 15.460938 3.074219 16.191406 3.21875 C 16.921875 3.367188 17.632812 3.582031 18.320312 3.867188 C 19.007812 4.152344 19.664062 4.5 20.28125 4.914062 C 20.902344 5.328125 21.476562 5.800781 22.003906 6.328125 C 22.53125 6.855469 23 7.425781 23.414062 8.046875 C 23.828125 8.667969 24.175781 9.320312 24.464844 10.007812 C 24.75 10.695312 24.964844 11.40625 25.109375 12.136719 C 25.253906 12.867188 25.328125 13.605469 25.328125 14.351562 Z M 25.328125 14.351562 " fill-opacity="1" fill-rule="nonzero"/><g clip-path="url(#e0651ae265)"><path fill="#ffffff" d="M 14.535156 1.421875 C 7.394531 1.421875 1.605469 7.277344 1.605469 14.5 C 1.605469 21.722656 7.394531 27.578125 14.535156 27.578125 C 21.675781 27.578125 27.460938 21.722656 27.460938 14.5 C 27.460938 7.277344 21.675781 1.421875 14.535156 1.421875 Z M 19.5 15.757812 L 9.566406 15.757812 L 9.566406 12.210938 L 19.5 12.210938 Z M 19.5 15.757812 " fill-opacity="1" fill-rule="nonzero"/></g></svg>